<svg xmlns="http://www.w3.org/2000/svg" width="120" height="120" viewBox="0 0 120 120">
  <rect width="120" height="120" rx="24" fill="#fff" />
  <path d="M60 52v16h22c-2.6 8-10 14-22 14-12 0-22-10-22-22s10-22 22-22c6 0 11 2 15 6l11-11C79 26 70 22 60 22 40 22 24 38 24 60s16 38 36 38c21 0 35-15 35-36 0-3-0.3-5-0.7-8H60z" fill="#4285F4" />
  <path d="M24 60l14-10c4-11 14-18 26-18 6 0 11 2 15 6l11-11C79 26 70 22 60 22 40 22 24 38 24 60z" fill="#EA4335" opacity="0.9" />
  <path d="M60 98c10 0 19-4 25-10l-12-10c-4 3-8 4-13 4-12 0-22-10-22-22l-14 10c6 16 21 28 36 28z" fill="#34A853" opacity="0.9" />
  <path d="M38 60l-14 10c2 5 4 9 8 12l12-10c-4-3-6-7-6-12z" fill="#FBBC05" opacity="0.9" />
</svg>
